<svg xmlns="http://www.w3.org/2000/svg" viewBox="0 0 355.28 355.09"><defs><style>.cls-1{fill:#fff;}.cls-2{fill:#e05e69;}.cls-3{fill:#01bc7d;}</style></defs><g id="Calque_2" data-name="Calque 2"><g id="Logo"><path id="Cercle" class="cls-1" d="M177.48,355.08C83,356.16-.57,277.89,0,176,.56,78.35,82.13-.3,178.2,0c94.64.3,177.17,76.59,177.08,178.54C355.19,276.91,273.66,355.94,177.48,355.08Zm-.3-10.77c91.49.65,166.41-73.64,167.17-165.75C345.1,87,270.5,11.36,178.57,10.89S14.14,83.63,11.06,170.87C7.69,266.39,83.23,344.11,177.18,344.31Z"/><g id="Radis"><g id="Noir"><path class="cls-1" d="M247.92,198.88l.12,9.06a9,9,0,0,0-.41,1.41c-3.3,27.74-23.09,48-50.9,51.29-11.51,1.36-23.18,1.35-34.77,2-8.45.44-12.7,5.32-11.92,13.68.38,6.1.14,12.32,1.32,18.25,1.11,5.61,3.34,10.53,10.22,12.68,6.29,2,11.34,1.88,16.77-1.66,3.53-2.31,7.54-3.87,11.26-5.9,1.69-.92,2.63-1.07,3.68,1,3.18,6.16,3.29,6.11-2.83,9.23l-7.62,3.88c3.7,1.2,6.59,2.15,9.5,3.08,1.38.44,1.87,1,1.4,2.69-1.94,7-1.84,7.05-8.63,4.85l-22-7.08c-1,.83-.13,1.39.08,2,.6,1.85,3.13,3.93,2.06,5.2-1.55,1.85-4.39,2.67-6.76,3.78-1.72.81-1.74-1-2.16-1.81-3.42-6.51-6.74-13.08-10.12-19.62-.44-.85-.6-1.91-1.9-2.63-1.85,5.67-3.78,11.23-5.46,16.85-.65,2.2-1.36,2.64-3.66,1.85-6.24-2.14-6.28-2-4.29-8.15,1.21-3.73,2.37-7.49,3.84-12.13-4.38,2.88-8,5.12-11.41,7.56-1.62,1.15-2.47,1.35-3.76-.56-3.89-5.75-4-5.69,1.74-9.5,4.16-2.76,8.28-5.56,12.52-8.2,1.84-1.15,2.1-2.16.58-3.72s-2.16-3.66-4-4.88a3.67,3.67,0,0,0-.3-1q-19.37-27.13-38.75-54.26c-.05-.26-.09-.51-.14-.77l.13-.23-.25-.08c-3.64-6.62-5.53-13.85-7.21-21.14,0-1.12.06-2.24-.05-3.35-1.53-15.35,2.33-29.33,10.88-42,2.55-3.79,5.65-7.2,8.5-10.78,3.76-2.63,7.35-5.54,11.3-7.84q27.79-16.16,57.76-4.23a58.19,58.19,0,0,1,8.81,7l3.18-10.33c.92-2.3-.23-4.42-.68-6.56-2-9.52-4.17-18.8-11.4-26.28-6.55-6.78-7.36-15.16-3.91-24,2.39-6.09,7.49-9.39,12.51-12.82,1.58-.41,1.93-1.74,2.37-3.06,1.25-3.78,2.33-7.64,3.9-11.29a16.54,16.54,0,0,1,14.67-10.54c6.74-.51,12.8,1.72,16.29,7.77,2.1,3.63,4,4.09,7.5,2.38s7.06-1.18,10.66-.67a2.18,2.18,0,0,0,2.27.55l-.07,0a7.17,7.17,0,0,0,1.13.88c8.83,4.63,12.23,13.33,9,22.7a36.4,36.4,0,0,1-11.95,16.84c-2.32,1.83-2.15,3.15-1,5.48,5.55,11.54-.12,23.27-12.6,26.42-1.57.39-3.17.69-4.71,1.18-4.53,1.43-9,3-12.23,6.77-5.62,4-9.79,9.57-14.74,14.3a2.21,2.21,0,0,0-.7,2.4c.49,1,1.58.43,2.35.33,3.51-.45,7,0,10.46.35,11,3.17,21,8.21,28.92,16.75C241.38,174,246.35,185.66,247.92,198.88ZM105,212.51h-.12a42.48,42.48,0,0,0,11,5,9.76,9.76,0,0,0,1.29.74c4.89,2,4.89,2,3.27,7a7,7,0,0,0-.37,1.06c-.34,2.2-1.56,2.56-3.47,1.77-3.79-1.58-7.65-3-11.41-4.68-1.77-.79-3.39-1.84-6.12-.94,13.1,19.35,27,37.8,40.86,57.42.18-2.09.3-3.15.35-4.22.74-14.75,8.31-22.11,23.19-22.62,7.49-.26,15-.55,22.45-1,6.46-.37,12.88-.75,19.21-2.66,20.87-6.29,35.67-28.56,33.21-50.3-.3-2.65-.93-3.75-3.93-2.84a64.35,64.35,0,0,1-20,2.48c-5.15-.1-5.33,1.3-4.92-5.6.21-3.35,1.37-4.13,4.52-3.92A58,58,0,0,0,232.55,187c1.69-.44,2.75-.94,1.75-3-7.32-15.21-19.06-24.87-35.8-27.56-8.48-1.35-11.83,1.33-14.46,9.4-.31.95-.61,1.9-.94,2.84-2.35,6.67-.41,6.47-8.28,4.14-2.43-.72-2.44-1.78-1.72-3.76,1.28-3.51,2.37-7.09,3.5-10.65.42-1.3.84-2.59-.07-3.93-2.7-4-5.7-7.55-10.62-8.84-2.75-1.88-6-2-9.13-2.67a51.86,51.86,0,0,0-39.8,8.7,7.13,7.13,0,0,0-1,.49c-5.55,3.9-5.57,3.92-.91,8.84,1,1,1.4,1.69.36,3.11-4.39,6-4.38,6.07-9.38,1.23-1.31-1.27-2-1.75-3.35.14-8.21,11.86-11.11,24.9-9.1,39.11A3,3,0,0,0,95,207.09c2.91,1.64,5.55,3.77,8.79,4.81ZM211.46,55c-1.85-4.26-4.48-6.18-8.42-6s-6.67,2.46-7.95,6.24c-.64,1.87-1.09,3.8-1.63,5.71-1.7,6.57-4.79,11.44-11.57,14.62-6.6,3.09-8.08,12.47-3.68,18.26,4.81,6.32,10.15,12.22,12.23,20.34,3.21-8.64,6-17.21,8.8-25.79,2.13-6.56,2.11-6.53,8.6-3.94,1.5.59,2.21,1.16,1.6,3-3.64,10.89-7.15,21.81-10.69,32.73-.24.73-1.44,1.49-.3,2.22.8.51,1.64-.13,2.35-.7,5.89-4.7,12.72-7.18,20-8.88,6.52-1.53,9.05-7.25,6.22-13.32-.58-1.25-1.29-2.43-1.89-3.66-3.56-7.38-4.1-5.18,2.27-10.22,5.16-4.1,9.69-8.61,12.06-14.93,1.38-3.67,1.22-7.12-1.69-10s-6.27-3.24-10.34-1.31c-2.59,1.23-5.17,2.49-7.65,3.93-2.18,1.27-3.53,1.09-4.61-1.41S212.71,57.28,211.46,55Z"/><path class="cls-1" d="M190.63,224c-22.33-2.21-42.85-9.73-62-21.18-1.66-1-1.78-1.84-.66-3.49,3.81-5.61,3.68-5.56,9.56-2.33,17.55,9.65,36,16.58,56.22,17.64,1.6.08,2.26.67,2.39,2.13,0,.25.11.49.14.74C196.81,224.32,198.93,224.52,190.63,224Z"/><path class="cls-1" d="M122.83,167.36l2.31,1.41A77.34,77.34,0,0,0,142.69,177c2.42.76,2.7,1.74,1.93,4-2.07,6.14-2,6.19-8.15,3.8a111,111,0,0,1-16.76-8.28c-2.13-1.27-2.57-2.37-.83-4.29C120.25,170.76,120.89,168.61,122.83,167.36Z"/></g><g id="Rose"><path class="cls-2" d="M91.37,228.08q19.38,27.13,38.75,54.26a3.67,3.67,0,0,1,.3,1c-10,2.68-20.17,4.54-30.64,4.16a49.89,49.89,0,0,1-10.37-1.21c-9.58-2.38-16.45-11-17.26-21.59a65.47,65.47,0,0,1,.62-15.32c1.16-7.34,6.26-12,11.54-16.48C86.49,231.1,88.66,229.18,91.37,228.08Z"/><path class="cls-2" d="M150,276.28c-.78-8.36,3.47-13.24,11.92-13.68,11.59-.61,23.26-.6,34.77-2,27.81-3.27,47.6-23.55,50.9-51.29a9,9,0,0,1,.41-1.41c5.58,13.47.91,31.36-12.18,41.47a94.57,94.57,0,0,1-52.62,20A138.77,138.77,0,0,0,150,276.28Z"/><path class="cls-2" d="M99.38,148l3.85,1.72c-2.85,3.58-6,7-8.5,10.78-8.55,12.7-12.41,26.68-10.88,42,.11,1.11,0,2.23.05,3.35C71.8,200.81,66.28,189.61,69.66,177c.16-.6.38-1.19.5-1.8,2.76-14.21,11.7-22.32,25.39-25.78A36,36,0,0,0,99.38,148Z"/><path class="cls-2" d="M247.92,198.88c-1.57-13.22-6.54-24.89-15.67-34.71-7.95-8.54-17.89-13.58-28.92-16.75,7.72-.14,15.53-1.2,23.16.13,24.24,4.22,34.72,26.19,23.18,48Z"/><path class="cls-2" d="M103.81,211.9c-3.24-1-5.88-3.17-8.79-4.81a3,3,0,0,1-1.42-2.48c-2-14.21.89-27.25,9.1-39.11,1.31-1.89,2-1.41,3.35-.14,5,4.84,5,4.75,9.38-1.23,1-1.42.61-2.09-.36-3.11-4.66-4.92-4.64-4.94.91-8.84a7.13,7.13,0,0,1,1-.49c11.61.41,22.67-2.15,33.5-6h15.43c4.92,1.29,7.92,4.87,10.62,8.84.91,1.34.49,2.63.07,3.93-1.13,3.56-2.22,7.14-3.5,10.65-.72,2-.71,3,1.72,3.76,7.87,2.33,5.93,2.53,8.28-4.14.33-.94.63-1.89.94-2.84,2.63-8.07,6-10.75,14.46-9.4,16.74,2.69,28.48,12.35,35.8,27.56,1,2.08-.06,2.58-1.75,3A58,58,0,0,1,214,189.19c-3.15-.21-4.31.57-4.52,3.92-.41,6.9-.23,5.5,4.92,5.6a64.35,64.35,0,0,0,20-2.48c3-.91,3.63.19,3.93,2.84,2.46,21.74-12.34,44-33.21,50.3-6.33,1.91-12.75,2.29-19.21,2.66-7.48.42-15,.71-22.45,1-14.88.51-22.45,7.87-23.19,22.62-.05,1.07-.17,2.13-.35,4.22-13.87-19.62-27.76-38.07-40.86-57.42,2.73-.9,4.35.15,6.12.94,3.76,1.66,7.62,3.1,11.41,4.68,1.91.79,3.13.43,3.47-1.77a7,7,0,0,1,.37-1.06c1.62-5,1.62-5-3.27-7a9.76,9.76,0,0,1-1.29-.74l14.93-4.73c-5,0-9.11,0-13.22,0s-8.45-.17-12.68-.25H105A1.09,1.09,0,0,1,103.81,211.9ZM190.63,224c8.3.49,6.18.29,5.6-6.49,0-.25-.12-.49-.14-.74-.13-1.46-.79-2.05-2.39-2.13-20.24-1.06-38.67-8-56.22-17.64-5.88-3.23-5.75-3.28-9.56,2.33-1.12,1.65-1,2.5.66,3.49C147.78,214.3,168.3,221.82,190.63,224Zm-67.8-56.67c-1.94,1.25-2.58,3.4-4,4.93-1.74,1.92-1.3,3,.83,4.29a111,111,0,0,0,16.76,8.28c6.19,2.39,6.08,2.34,8.15-3.8.77-2.28.49-3.26-1.93-4a77.34,77.34,0,0,1-17.55-8.27Z"/></g><g id="Vert"><path class="cls-3" d="M172.29,137.63q-29.89-11.9-57.76,4.23c-4,2.3-7.54,5.21-11.3,7.84L99.38,148c-10.33-9-14.24-26.73-8.45-39.24,3.27-7.06,9.49-11.43,15.53-15.82,6.3-4.57,13.44-7.55,20.72-10.13,16.16-5.72,32.37-11.32,48.57-16.92,1.63-.56,3.36-.82,5.05-1.22-5,3.43-10.12,6.73-12.51,12.82-3.45,8.82-2.64,17.2,3.91,24,7.23,7.48,9.39,16.76,11.4,26.28.45,2.14,1.6,4.26.68,6.57A49.44,49.44,0,0,0,172.29,137.63Z"/><path class="cls-3" d="M206,130c3.27-3.72,7.7-5.34,12.23-6.77,1.54-.49,3.14-.79,4.71-1.18,12.48-3.15,18.15-14.88,12.6-26.42-1.12-2.33-1.29-3.65,1-5.48a36.4,36.4,0,0,0,11.95-16.84c3.27-9.37-.13-18.07-9-22.7a7.17,7.17,0,0,1-1.13-.88c8.23.42,15.22,3.5,20.33,10.07,11.07,14.24,8.94,36.45-5,48.36-12.87,11-27.34,19-44.4,21.58C208.2,129.94,207.08,130,206,130Z"/><path class="cls-3" d="M238.46,49.79a2.18,2.18,0,0,1-2.27-.55A2.16,2.16,0,0,1,238.46,49.79Z"/><path class="cls-3" d="M211.46,55c1.25,2.28,2.67,4.49,3.69,6.88s2.43,2.68,4.61,1.41c2.48-1.44,5.06-2.7,7.65-3.93,4.07-1.93,7.55-1.5,10.34,1.31s3.07,6.37,1.69,10c-2.37,6.32-6.9,10.83-12.06,14.93-6.37,5-5.83,2.84-2.27,10.22.6,1.23,1.31,2.41,1.89,3.66,2.83,6.07.3,11.79-6.22,13.32-7.26,1.7-14.09,4.18-20,8.88-.71.57-1.55,1.21-2.35.7-1.14-.73.06-1.49.3-2.22,3.54-10.92,7.05-21.84,10.69-32.73.61-1.83-.1-2.4-1.6-3-6.49-2.59-6.47-2.62-8.6,3.94-2.79,8.58-5.59,17.15-8.8,25.79-2.08-8.12-7.42-14-12.23-20.34-4.4-5.79-2.92-15.17,3.68-18.26,6.78-3.18,9.87-8,11.57-14.62A85.7,85.7,0,0,0,211.46,55Z"/><path class="cls-3" d="M150.48,145.66c-10.83,3.88-21.89,6.44-33.5,6a51.86,51.86,0,0,1,39.8-8.7Z"/></g></g></g></g></svg>